<?xml version="1.0" encoding="UTF-8" standalone="no"?>
<svg
   xmlns:dc="http://purl.org/dc/elements/1.1/"
   xmlns:cc="http://creativecommons.org/ns#"
   xmlns:rdf="http://www.w3.org/1999/02/22-rdf-syntax-ns#"
   xmlns:svg="http://www.w3.org/2000/svg"
   xmlns="http://www.w3.org/2000/svg"
   xmlns:sodipodi="http://sodipodi.sourceforge.net/DTD/sodipodi-0.dtd"
   xmlns:inkscape="http://www.inkscape.org/namespaces/inkscape"
   id="f2f04349-8aee-4413-84c9-a9053611b319"
   width="18"
   height="18"
   viewBox="0 0 18 18"
   version="1.1"
   sodipodi:docname="storageAccountAttached.svg"
   inkscape:version="1.0.2 (e86c870879, 2021-01-15, custom)">
  <metadata
     id="metadata26">
    <rdf:RDF>
      <cc:Work
         rdf:about="">
        <dc:format>image/svg+xml</dc:format>
        <dc:type
           rdf:resource="http://purl.org/dc/dcmitype/StillImage" />
      </cc:Work>
    </rdf:RDF>
  </metadata>
  <sodipodi:namedview
     pagecolor="#ffffff"
     bordercolor="#666666"
     borderopacity="1"
     objecttolerance="10"
     gridtolerance="10"
     guidetolerance="10"
     inkscape:pageopacity="0"
     inkscape:pageshadow="2"
     inkscape:window-width="2160"
     inkscape:window-height="1470"
     id="namedview24"
     showgrid="false"
     inkscape:zoom="40.833333"
     inkscape:cx="9"
     inkscape:cy="9"
     inkscape:window-x="85"
     inkscape:window-y="-11"
     inkscape:window-maximized="1"
     inkscape:current-layer="f2f04349-8aee-4413-84c9-a9053611b319" />
  <defs
     id="defs9">
    <linearGradient
       id="ad4c4f96-09aa-4f91-ba10-5cb8ad530f74"
       x1="9"
       y1="15.83"
       x2="9"
       y2="5.79"
       gradientUnits="userSpaceOnUse">
      <stop
         offset="0"
         stop-color="#b3b3b3"
         id="stop2" />
      <stop
         offset="0.26"
         stop-color="#c1c1c1"
         id="stop4" />
      <stop
         offset="1"
         stop-color="#e6e6e6"
         id="stop6" />
    </linearGradient>
  </defs>
  <title
     id="title11">Icon-storage-86</title>
  <path
     d="M.5,5.79h17a0,0,0,0,1,0,0v9.48a.57.57,0,0,1-.57.57H1.07a.57.57,0,0,1-.57-.57V5.79A0,0,0,0,1,.5,5.79Z"
     fill="url(#ad4c4f96-09aa-4f91-ba10-5cb8ad530f74)"
     id="path13" />
  <path
     d="M1.07,2.17H16.93a.57.57,0,0,1,.57.57V5.79a0,0,0,0,1,0,0H.5a0,0,0,0,1,0,0V2.73A.57.57,0,0,1,1.07,2.17Z"
     fill="#37c2b1"
     id="path15" />
  <path
     d="M2.81,6.89H15.18a.27.27,0,0,1,.26.27v1.4a.27.27,0,0,1-.26.27H2.81a.27.27,0,0,1-.26-.27V7.16A.27.27,0,0,1,2.81,6.89Z"
     fill="#fff"
     id="path17" />
  <path
     d="M2.82,9.68H15.19a.27.27,0,0,1,.26.27v1.41a.27.27,0,0,1-.26.27H2.82a.27.27,0,0,1-.26-.27V10A.27.27,0,0,1,2.82,9.68Z"
     fill="#37c2b1"
     id="path19" />
  <path
     d="M2.82,12.5H15.19a.27.27,0,0,1,.26.27v1.41a.27.27,0,0,1-.26.27H2.82a.27.27,0,0,1-.26-.27V12.77A.27.27,0,0,1,2.82,12.5Z"
     fill="#258277"
     id="path21" />
  <g
     id="shape20-11-3"
     transform="matrix(0.08637583,0,0,0.08390308,3.4299469,-8.1252329)"
     style="fill:#ff0000;fill-opacity:1">
    <title
       id="title32-4">Sheet.20</title>
    <path
       d="m 0,200.91 h 18.19 l 16.25,-0.87 12.34,-44.32 c 0.65,-2.61 1.95,-7.83 7.15,-7.83 5.2,0 5.85,5.22 5.85,7.83 l 0.65,73.88 9.09,-25.21 c 0.65,-2.61 2.6,-3.48 3.9,-3.48 h 52.63 c 2.6,0 4.55,3.48 4.55,6.09 0,2.61 -1.95,7.82 -4.55,7.82 H 78.62 l -16.89,45.2 c -1.3,4.34 -2.6,6.08 -6.5,5.21 -1.95,-0.87 -3.9,-4.34 -3.9,-6.95 l -0.65,-67.8 -5.2,18.26 c -0.65,2.6 -1.95,6.08 -3.9,6.08 H 25.99 5.85 L 2.6,207.87 Z"
       class="st4"
       id="path34-3"
       style="fill:#ff0000;fill-opacity:1" />
  </g>
</svg>
