<?xml version="1.0" encoding="UTF-8" standalone="no"?>
<svg
   xmlns:dc="http://purl.org/dc/elements/1.1/"
   xmlns:cc="http://creativecommons.org/ns#"
   xmlns:rdf="http://www.w3.org/1999/02/22-rdf-syntax-ns#"
   xmlns:svg="http://www.w3.org/2000/svg"
   xmlns="http://www.w3.org/2000/svg"
   xmlns:sodipodi="http://sodipodi.sourceforge.net/DTD/sodipodi-0.dtd"
   xmlns:inkscape="http://www.inkscape.org/namespaces/inkscape"
   version="1.1"
   id="Layer_1"
   x="0px"
   y="0px"
   viewBox="0 0 64 64"
   enable-background="new 0 0 64 64"
   xml:space="preserve"
   sodipodi:docname="taskHub.svg"
   inkscape:version="1.0 (4035a4fb49, 2020-05-01)"><metadata
   id="metadata17"><rdf:RDF><cc:Work
       rdf:about=""><dc:format>image/svg+xml</dc:format><dc:type
         rdf:resource="http://purl.org/dc/dcmitype/StillImage" /></cc:Work></rdf:RDF></metadata><defs
   id="defs15" /><sodipodi:namedview
   inkscape:document-rotation="0"
   pagecolor="#ffffff"
   bordercolor="#666666"
   borderopacity="1"
   objecttolerance="10"
   gridtolerance="10"
   guidetolerance="10"
   inkscape:pageopacity="0"
   inkscape:pageshadow="2"
   inkscape:window-width="2160"
   inkscape:window-height="1470"
   id="namedview13"
   showgrid="false"
   inkscape:zoom="11.484375"
   inkscape:cx="32"
   inkscape:cy="32"
   inkscape:window-x="85"
   inkscape:window-y="-11"
   inkscape:window-maximized="1"
   inkscape:current-layer="Layer_1" />
<g
   id="Layer_1-5"
   transform="matrix(1.4141364,0,0,1.4141364,-75.161216,-51.749942)"
   style="fill:#b4b4b4;fill-opacity:1"><g
     id="Azure"
     style="fill:#b4b4b4;fill-opacity:1" /><g
     transform="translate(37.3575,-2500.2)"
     id="BizTalk_Services"
     style="fill:#b4b4b4;fill-opacity:1" /><g
     id="Key_Vault"
     style="fill:#b4b4b4;fill-opacity:1" /><g
     id="Mobile_Engagement"
     style="fill:#b4b4b4;fill-opacity:1" /><g
     id="Office_subscription"
     style="fill:#b4b4b4;fill-opacity:1"><g
       id="Office_subscription_1_"
       style="fill:#b4b4b4;fill-opacity:1" /></g></g><g
   id="paths"
   transform="matrix(1.9931036,0,0,1.9931036,-119.22001,-85.548973)"
   style="fill:#c8c8c8;fill-opacity:0.60000002"><g
     id="Access_control"
     style="fill:#c8c8c8;fill-opacity:0.60000002" /><g
     id="Azure_active_directory"
     style="fill:#c8c8c8;fill-opacity:0.60000002" /><g
     id="API_Management"
     style="fill:#c8c8c8;fill-opacity:0.60000002" /><g
     id="Azure_automation"
     style="fill:#c8c8c8;fill-opacity:0.60000002" /><g
     id="Azure_SQL_database"
     style="fill:#c8c8c8;fill-opacity:0.60000002" /><g
     id="Azure_subscription"
     style="fill:#c8c8c8;fill-opacity:0.60000002" /><g
     id="Backup_service"
     style="fill:#c8c8c8;fill-opacity:0.60000002" /><g
     id="Bitbucket_code_source"
     style="fill:#c8c8c8;fill-opacity:0.60000002" /><g
     id="Azure_cache"
     style="fill:#c8c8c8;fill-opacity:0.60000002" /><g
     id="Content_delivery_network__x28_CDN_x29_"
     style="fill:#c8c8c8;fill-opacity:0.60000002" /><g
     id="Cloud_service"
     style="fill:#c8c8c8;fill-opacity:0.60000002" /><g
     id="CodePlex"
     style="fill:#c8c8c8;fill-opacity:0.60000002" /><g
     id="Dropbox_code_source"
     style="fill:#c8c8c8;fill-opacity:0.60000002" /><g
     id="Express_route"
     style="fill:#c8c8c8;fill-opacity:0.60000002" /><g
     id="Git_repository"
     style="fill:#c8c8c8;fill-opacity:0.60000002" /><g
     id="GitHub_code"
     style="fill:#c8c8c8;fill-opacity:0.60000002" /><g
     id="HD_Insight"
     style="fill:#c8c8c8;fill-opacity:0.60000002" /><g
     id="Health_monitoring"
     style="fill:#c8c8c8;fill-opacity:0.60000002" /><g
     id="Healthy"
     style="fill:#c8c8c8;fill-opacity:0.60000002" /><g
     id="BizTalk_hybrid_connection"
     style="fill:#c8c8c8;fill-opacity:0.60000002" /><g
     id="Hybrid_connection_manager_for_BizTalk_hybrid_connection"
     style="fill:#c8c8c8;fill-opacity:0.60000002" /><g
     id="Hyper-V_recovery_manager"
     style="fill:#c8c8c8;fill-opacity:0.60000002" /><g
     id="Machine_learning"
     style="fill:#c8c8c8;fill-opacity:0.60000002" /><g
     id="Media_services"
     style="fill:#c8c8c8;fill-opacity:0.60000002" /><g
     id="Microsoft_account"
     style="fill:#c8c8c8;fill-opacity:0.60000002" /><g
     id="Mobile_services"
     style="fill:#c8c8c8;fill-opacity:0.60000002" /><g
     id="Multi-factor_authentication"
     style="fill:#c8c8c8;fill-opacity:0.60000002" /><g
     id="MySQL_database"
     style="fill:#c8c8c8;fill-opacity:0.60000002" /><g
     id="Notification_hub"
     style="fill:#c8c8c8;fill-opacity:0.60000002" /><g
     id="Notification_topic"
     style="fill:#c8c8c8;fill-opacity:0.60000002" /><g
     id="Cloud_Office_365"
     style="fill:#c8c8c8;fill-opacity:0.60000002" /><g
     id="Office_365"
     style="fill:#c8c8c8;fill-opacity:0.60000002" /><g
     id="OS_image"
     style="fill:#c8c8c8;fill-opacity:0.60000002" /><g
     id="Remote_app"
     style="fill:#c8c8c8;fill-opacity:0.60000002" /><g
     id="Task_scheduler"
     style="fill:#c8c8c8;fill-opacity:0.60000002" /><g
     id="Azure_SDK"
     style="fill:#c8c8c8;fill-opacity:0.60000002" /><g
     id="Service_bus"
     style="fill:#c8c8c8;fill-opacity:0.60000002" /><g
     id="Service_bus_queue"
     style="fill:#c8c8c8;fill-opacity:0.60000002" /><g
     id="Service_bus_relay"
     style="fill:#c8c8c8;fill-opacity:0.60000002" /><g
     id="Service_bus_topic"
     style="fill:#c8c8c8;fill-opacity:0.60000002" /><g
     id="Service_endpoint"
     style="fill:#c8c8c8;fill-opacity:0.60000002" /><g
     id="Custom_create"
     style="fill:#c8c8c8;fill-opacity:0.60000002" /><g
     id="SQL_data_sync"
     style="fill:#c8c8c8;fill-opacity:0.60000002" /><g
     id="SQL_reporting"
     style="fill:#c8c8c8;fill-opacity:0.60000002" /><g
     id="Startup_task"
     style="fill:#c8c8c8;fill-opacity:0.60000002" /><g
     id="Windows_Azure_storage"
     style="fill:#c8c8c8;fill-opacity:0.60000002" /><g
     id="Storage_blob"
     style="fill:#c8c8c8;fill-opacity:0.60000002" /><g
     id="Storage_table"
     style="fill:#c8c8c8;fill-opacity:0.60000002"><path
       id="path56"
       d="m 85.5,42.3 h -19 L 57,58.7 66.5,75.1 h 18.9 l 9.5,-16.4 z m -10.4,8.6 h 4.4 v 4.4 h -4.4 z m 0,5.5 h 4.4 v 4.4 h -4.4 z m 0,5.5 h 4.4 v 4.4 h -4.4 z m -5.5,-11 H 74 v 4.4 h -4.4 z m 0,5.5 H 74 v 4.4 h -4.4 z m 0,5.5 H 74 v 4.4 h -4.4 z m 15.3,6.8 H 67 V 50.8 h 1.2 v 16.7 0 0 H 84.9 Z M 85,66.3 H 80.6 V 61.9 H 85 Z m 0,-5.5 H 80.6 V 56.4 H 85 Z m 0,-5.5 H 80.6 V 50.9 H 85 Z"
       fill="#0078d7"
       style="fill:#c8c8c8;fill-opacity:0.60000002" /></g></g><g
   id="Layer_57"
   transform="matrix(1.4141364,0,0,1.4141364,-75.161216,-51.749942)"
   style="fill:#b4b4b4;fill-opacity:1" /><g
   id="Ibiza_Symbols"
   transform="matrix(1.4141364,0,0,1.4141364,-75.161216,-51.749942)"
   style="fill:#b4b4b4;fill-opacity:1"><g
     id="SQL_Database_Premium"
     style="fill:#b4b4b4;fill-opacity:1" /></g><g
   id="g10">
	<path
   fill="#3999C6"
   d="M63.6,32.4c0.6-0.6,0.5-1.7,0-2.3L60.5,27L46.7,13.6c-0.6-0.6-1.5-0.6-2.2,0l0,0c-0.6,0.6-0.8,1.7,0,2.3   L59,30.1c0.6,0.6,0.6,1.7,0,2.3L44.2,47.1c-0.6,0.6-0.6,1.7,0,2.3l0,0c0.6,0.6,1.7,0.5,2.2,0l13.7-13.6c0,0,0,0,0.1-0.1L63.6,32.4z   "
   id="path2" />
	<path
   fill="#3999C6"
   d="M0.4,32.4c-0.6-0.6-0.5-1.7,0-2.3L3.5,27l13.8-13.4c0.6-0.6,1.5-0.6,2.2,0l0,0c0.6,0.6,0.8,1.7,0,2.3   L5.3,30.1c-0.6,0.6-0.6,1.7,0,2.3l14.5,14.7c0.6,0.6,0.6,1.7,0,2.3l0,0c-0.6,0.6-1.7,0.5-2.2,0L3.6,36c0,0,0,0-0.1-0.1L0.4,32.4z"
   id="path4" />
	<polygon
   fill="#FCD116"
   points="47.6,2.5 28.1,2.5 17.6,32.1 30.4,32.2 20.4,61.5 48,22.4 34.6,22.4  "
   id="polygon6" />
	<polygon
   opacity="0.3"
   fill="#FF8C00"
   enable-background="new    "
   points="34.6,22.4 47.6,2.5 37.4,2.5 26.6,27.1 39.4,27.2    20.4,61.5 48,22.4  "
   id="polygon8" />
</g>
</svg>
