<?xml version="1.0" encoding="UTF-8" standalone="no"?>
<svg
   xmlns:dc="http://purl.org/dc/elements/1.1/"
   xmlns:cc="http://creativecommons.org/ns#"
   xmlns:rdf="http://www.w3.org/1999/02/22-rdf-syntax-ns#"
   xmlns:svg="http://www.w3.org/2000/svg"
   xmlns="http://www.w3.org/2000/svg"
   xmlns:sodipodi="http://sodipodi.sourceforge.net/DTD/sodipodi-0.dtd"
   xmlns:inkscape="http://www.inkscape.org/namespaces/inkscape"
   inkscape:version="1.0 (4035a4fb49, 2020-05-01)"
   sodipodi:docname="taskHubConnected.svg"
   xml:space="preserve"
   enable-background="new 0 0 64 64"
   viewBox="0 0 64 64"
   y="0px"
   x="0px"
   id="Layer_1"
   version="1.1"><metadata
   id="metadata17"><rdf:RDF><cc:Work
       rdf:about=""><dc:format>image/svg+xml</dc:format><dc:type
         rdf:resource="http://purl.org/dc/dcmitype/StillImage" /></cc:Work></rdf:RDF></metadata><defs
   id="defs15" /><sodipodi:namedview
   inkscape:current-layer="Layer_1"
   inkscape:window-maximized="1"
   inkscape:window-y="-11"
   inkscape:window-x="85"
   inkscape:cy="44.509449"
   inkscape:cx="32"
   inkscape:zoom="8.1206794"
   showgrid="false"
   id="namedview13"
   inkscape:window-height="1470"
   inkscape:window-width="2160"
   inkscape:pageshadow="2"
   inkscape:pageopacity="0"
   guidetolerance="10"
   gridtolerance="10"
   objecttolerance="10"
   borderopacity="1"
   bordercolor="#666666"
   pagecolor="#ffffff"
   inkscape:document-rotation="0" />
<g
   style="fill:#b4b4b4;fill-opacity:1"
   transform="matrix(1.4141364,0,0,1.4141364,-75.161216,-51.749942)"
   id="Layer_1-5"><g
     style="fill:#b4b4b4;fill-opacity:1"
     id="Azure" /><g
     style="fill:#b4b4b4;fill-opacity:1"
     id="BizTalk_Services"
     transform="translate(37.3575,-2500.2)" /><g
     style="fill:#b4b4b4;fill-opacity:1"
     id="Key_Vault" /><g
     style="fill:#b4b4b4;fill-opacity:1"
     id="Mobile_Engagement" /><g
     style="fill:#b4b4b4;fill-opacity:1"
     id="Office_subscription"><g
       style="fill:#b4b4b4;fill-opacity:1"
       id="Office_subscription_1_" /></g></g><g
   style="fill:#c8c8c8;fill-opacity:0.60000002"
   transform="matrix(1.9931036,0,0,1.9931036,-119.22001,-85.548973)"
   id="paths"><g
     style="fill:#c8c8c8;fill-opacity:0.60000002"
     id="Access_control" /><g
     style="fill:#c8c8c8;fill-opacity:0.60000002"
     id="Azure_active_directory" /><g
     style="fill:#c8c8c8;fill-opacity:0.60000002"
     id="API_Management" /><g
     style="fill:#c8c8c8;fill-opacity:0.60000002"
     id="Azure_automation" /><g
     style="fill:#c8c8c8;fill-opacity:0.60000002"
     id="Azure_SQL_database" /><g
     style="fill:#c8c8c8;fill-opacity:0.60000002"
     id="Azure_subscription" /><g
     style="fill:#c8c8c8;fill-opacity:0.60000002"
     id="Backup_service" /><g
     style="fill:#c8c8c8;fill-opacity:0.60000002"
     id="Bitbucket_code_source" /><g
     style="fill:#c8c8c8;fill-opacity:0.60000002"
     id="Azure_cache" /><g
     style="fill:#c8c8c8;fill-opacity:0.60000002"
     id="Content_delivery_network__x28_CDN_x29_" /><g
     style="fill:#c8c8c8;fill-opacity:0.60000002"
     id="Cloud_service" /><g
     style="fill:#c8c8c8;fill-opacity:0.60000002"
     id="CodePlex" /><g
     style="fill:#c8c8c8;fill-opacity:0.60000002"
     id="Dropbox_code_source" /><g
     style="fill:#c8c8c8;fill-opacity:0.60000002"
     id="Express_route" /><g
     style="fill:#c8c8c8;fill-opacity:0.60000002"
     id="Git_repository" /><g
     style="fill:#c8c8c8;fill-opacity:0.60000002"
     id="GitHub_code" /><g
     style="fill:#c8c8c8;fill-opacity:0.60000002"
     id="HD_Insight" /><g
     style="fill:#c8c8c8;fill-opacity:0.60000002"
     id="Health_monitoring" /><g
     style="fill:#c8c8c8;fill-opacity:0.60000002"
     id="Healthy" /><g
     style="fill:#c8c8c8;fill-opacity:0.60000002"
     id="BizTalk_hybrid_connection" /><g
     style="fill:#c8c8c8;fill-opacity:0.60000002"
     id="Hybrid_connection_manager_for_BizTalk_hybrid_connection" /><g
     style="fill:#c8c8c8;fill-opacity:0.60000002"
     id="Hyper-V_recovery_manager" /><g
     style="fill:#c8c8c8;fill-opacity:0.60000002"
     id="Machine_learning" /><g
     style="fill:#c8c8c8;fill-opacity:0.60000002"
     id="Media_services" /><g
     style="fill:#c8c8c8;fill-opacity:0.60000002"
     id="Microsoft_account" /><g
     style="fill:#c8c8c8;fill-opacity:0.60000002"
     id="Mobile_services" /><g
     style="fill:#c8c8c8;fill-opacity:0.60000002"
     id="Multi-factor_authentication" /><g
     style="fill:#c8c8c8;fill-opacity:0.60000002"
     id="MySQL_database" /><g
     style="fill:#c8c8c8;fill-opacity:0.60000002"
     id="Notification_hub" /><g
     style="fill:#c8c8c8;fill-opacity:0.60000002"
     id="Notification_topic" /><g
     style="fill:#c8c8c8;fill-opacity:0.60000002"
     id="Cloud_Office_365" /><g
     style="fill:#c8c8c8;fill-opacity:0.60000002"
     id="Office_365" /><g
     style="fill:#c8c8c8;fill-opacity:0.60000002"
     id="OS_image" /><g
     style="fill:#c8c8c8;fill-opacity:0.60000002"
     id="Remote_app" /><g
     style="fill:#c8c8c8;fill-opacity:0.60000002"
     id="Task_scheduler" /><g
     style="fill:#c8c8c8;fill-opacity:0.60000002"
     id="Azure_SDK" /><g
     style="fill:#c8c8c8;fill-opacity:0.60000002"
     id="Service_bus" /><g
     style="fill:#c8c8c8;fill-opacity:0.60000002"
     id="Service_bus_queue" /><g
     style="fill:#c8c8c8;fill-opacity:0.60000002"
     id="Service_bus_relay" /><g
     style="fill:#c8c8c8;fill-opacity:0.60000002"
     id="Service_bus_topic" /><g
     style="fill:#c8c8c8;fill-opacity:0.60000002"
     id="Service_endpoint" /><g
     style="fill:#c8c8c8;fill-opacity:0.60000002"
     id="Custom_create" /><g
     style="fill:#c8c8c8;fill-opacity:0.60000002"
     id="SQL_data_sync" /><g
     style="fill:#c8c8c8;fill-opacity:0.60000002"
     id="SQL_reporting" /><g
     style="fill:#c8c8c8;fill-opacity:0.60000002"
     id="Startup_task" /><g
     style="fill:#c8c8c8;fill-opacity:0.60000002"
     id="Windows_Azure_storage" /><g
     style="fill:#c8c8c8;fill-opacity:0.60000002"
     id="Storage_blob" /><g
     style="fill:#c8c8c8;fill-opacity:0.60000002"
     id="Storage_table"><path
       style="fill:#c8c8c8;fill-opacity:0.60000002"
       fill="#0078d7"
       d="m 85.5,42.3 h -19 L 57,58.7 66.5,75.1 h 18.9 l 9.5,-16.4 z m -10.4,8.6 h 4.4 v 4.4 h -4.4 z m 0,5.5 h 4.4 v 4.4 h -4.4 z m 0,5.5 h 4.4 v 4.4 h -4.4 z m -5.5,-11 H 74 v 4.4 h -4.4 z m 0,5.5 H 74 v 4.4 h -4.4 z m 0,5.5 H 74 v 4.4 h -4.4 z m 15.3,6.8 H 67 V 50.8 h 1.2 v 16.7 0 0 H 84.9 Z M 85,66.3 H 80.6 V 61.9 H 85 Z m 0,-5.5 H 80.6 V 56.4 H 85 Z m 0,-5.5 H 80.6 V 50.9 H 85 Z"
       id="path56" /></g></g><g
   style="fill:#b4b4b4;fill-opacity:1"
   transform="matrix(1.4141364,0,0,1.4141364,-75.161216,-51.749942)"
   id="Layer_57" /><g
   style="fill:#b4b4b4;fill-opacity:1"
   transform="matrix(1.4141364,0,0,1.4141364,-75.161216,-51.749942)"
   id="Ibiza_Symbols"><g
     style="fill:#b4b4b4;fill-opacity:1"
     id="SQL_Database_Premium" /></g><g
   id="g10">
	<path
   id="path2"
   d="M63.6,32.4c0.6-0.6,0.5-1.7,0-2.3L60.5,27L46.7,13.6c-0.6-0.6-1.5-0.6-2.2,0l0,0c-0.6,0.6-0.8,1.7,0,2.3   L59,30.1c0.6,0.6,0.6,1.7,0,2.3L44.2,47.1c-0.6,0.6-0.6,1.7,0,2.3l0,0c0.6,0.6,1.7,0.5,2.2,0l13.7-13.6c0,0,0,0,0.1-0.1L63.6,32.4z   "
   fill="#3999C6" />
	<path
   id="path4"
   d="M0.4,32.4c-0.6-0.6-0.5-1.7,0-2.3L3.5,27l13.8-13.4c0.6-0.6,1.5-0.6,2.2,0l0,0c0.6,0.6,0.8,1.7,0,2.3   L5.3,30.1c-0.6,0.6-0.6,1.7,0,2.3l14.5,14.7c0.6,0.6,0.6,1.7,0,2.3l0,0c-0.6,0.6-1.7,0.5-2.2,0L3.6,36c0,0,0,0-0.1-0.1L0.4,32.4z"
   fill="#3999C6" />
	<polygon
   id="polygon6"
   points="47.6,2.5 28.1,2.5 17.6,32.1 30.4,32.2 20.4,61.5 48,22.4 34.6,22.4  "
   fill="#FCD116" />
	<polygon
   id="polygon8"
   points="34.6,22.4 47.6,2.5 37.4,2.5 26.6,27.1 39.4,27.2    20.4,61.5 48,22.4  "
   enable-background="new    "
   fill="#FF8C00"
   opacity="0.3" />
</g>
<g
   style="fill:#ff0000;fill-opacity:1"
   transform="matrix(0.3136085,0,0,0.28473247,12.242084,-28.645509)"
   id="shape20-11-3"><title
     id="title32-4">Sheet.20</title><path
     style="fill:#ff0000;fill-opacity:1"
     id="path34-3"
     class="st4"
     d="m 0,200.91 h 18.19 l 16.25,-0.87 12.34,-44.32 c 0.65,-2.61 1.95,-7.83 7.15,-7.83 5.2,0 5.85,5.22 5.85,7.83 l 0.65,73.88 9.09,-25.21 c 0.65,-2.61 2.6,-3.48 3.9,-3.48 h 52.63 c 2.6,0 4.55,3.48 4.55,6.09 0,2.61 -1.95,7.82 -4.55,7.82 H 78.62 l -16.89,45.2 c -1.3,4.34 -2.6,6.08 -6.5,5.21 -1.95,-0.87 -3.9,-4.34 -3.9,-6.95 l -0.65,-67.8 -5.2,18.26 c -0.65,2.6 -1.95,6.08 -3.9,6.08 H 25.99 5.85 L 2.6,207.87 Z" /></g></svg>
