<?xml version="1.0" encoding="UTF-8" standalone="no"?>
<svg
   xmlns:dc="http://purl.org/dc/elements/1.1/"
   xmlns:cc="http://creativecommons.org/ns#"
   xmlns:rdf="http://www.w3.org/1999/02/22-rdf-syntax-ns#"
   xmlns:svg="http://www.w3.org/2000/svg"
   xmlns="http://www.w3.org/2000/svg"
   xmlns:sodipodi="http://sodipodi.sourceforge.net/DTD/sodipodi-0.dtd"
   xmlns:inkscape="http://www.inkscape.org/namespaces/inkscape"
   width="14"
   height="16"
   viewBox="0 0 14 16"
   version="1.1"
   id="svg4"
   sodipodi:docname="unplug.svg"
   inkscape:version="1.0 (4035a4fb49, 2020-05-01)">
  <metadata
     id="metadata10">
    <rdf:RDF>
      <cc:Work
         rdf:about="">
        <dc:format>image/svg+xml</dc:format>
        <dc:type
           rdf:resource="http://purl.org/dc/dcmitype/StillImage" />
      </cc:Work>
    </rdf:RDF>
  </metadata>
  <defs
     id="defs8" />
  <sodipodi:namedview
     inkscape:document-rotation="0"
     pagecolor="#ffffff"
     bordercolor="#666666"
     borderopacity="1"
     objecttolerance="10"
     gridtolerance="10"
     guidetolerance="10"
     inkscape:pageopacity="0"
     inkscape:pageshadow="2"
     inkscape:window-width="2160"
     inkscape:window-height="1470"
     id="namedview6"
     showgrid="false"
     inkscape:zoom="45.9375"
     inkscape:cx="7"
     inkscape:cy="8"
     inkscape:window-x="85"
     inkscape:window-y="-11"
     inkscape:window-maximized="1"
     inkscape:current-layer="svg4" />
  <path
     fill-rule="evenodd"
     d="M14 6V5h-4V3H8v1H6c-1.03 0-1.77.81-2 2L3 7c-1.66 0-3 1.34-3 3v2h1v-2c0-1.11.89-2 2-2l1 1c.25 1.16.98 2 2 2h2v1h2v-2h4V9h-4V6h4z"
     id="path2"
     style="opacity:0.3;fill:#c8c8c8;fill-opacity:1" />
  <g
     style="opacity:1;fill:#c8c8c8;fill-opacity:1"
     transform="matrix(0.02347216,0,0,0.02347525,-1.8775739,4.5933482)"
     id="XMLID_1_">
    <path
       style="fill:#c8c8c8;fill-opacity:1"
       d="m 387,-131 c -141,0 -256,115 -256,256 0,141 115,256 256,256 141,0 256,-115 256,-256 0,-141 -115,-256 -256,-256 z m 0,47.3 c 47.3,0 91.4,15.8 126.8,42.5 l -292.2,293 C 194.8,216.4 178.3,172.3 178.3,125 178.3,10 272,-83.7 387,-83.7 Z m 0,417.4 c -47.3,0 -91.4,-15.8 -126.8,-42.5 L 552.4,-1.8 C 579.2,33.6 595,77.7 595,125 595.7,240 502,333.7 387,333.7 Z"
       id="XMLID_6_" />
  </g>
</svg>
