<?xml version="1.0" encoding="UTF-8" standalone="no"?>
<!DOCTYPE svg PUBLIC "-//W3C//DTD SVG 1.1//EN" "http://www.w3.org/Graphics/SVG/1.1/DTD/svg11.dtd">
<!-- Generated by Microsoft Visio, SVG Export logo.svg Page-1 -->
<svg xmlns="http://www.w3.org/2000/svg" xmlns:xlink="http://www.w3.org/1999/xlink" xmlns:ev="http://www.w3.org/2001/xml-events"
		width="3.94551in" height="3.69586in" viewBox="0 0 284.076 266.102" xml:space="preserve" color-interpolation-filters="sRGB"
		class="st5">
	<style type="text/css">
	<![CDATA[
		.st1 {fill:#3999c6;stroke:none;stroke-linecap:butt;stroke-width:9.5625}
		.st2 {fill:#fcd116;stroke:none;stroke-linecap:butt;stroke-width:9.5625}
		.st3 {fill:#ff8c00;fill-opacity:0.3;stroke:none;stroke-linecap:butt;stroke-width:9.5625}
		.st4 {fill:#ff0000;stroke:none;stroke-linecap:butt;stroke-width:0.75}
		.st5 {fill:none;fill-rule:evenodd;font-size:12px;overflow:visible;stroke-linecap:square;stroke-miterlimit:3}
	]]>
	</style>

	<g>
		<title>Page-1</title>
		<g id="group1-1" transform="translate(26.8951,-27.5625)">
			<title>Sheet.1</title>
			<g id="group2-2">
				<title>Sheet.2</title>
				<g id="shape3-3" transform="translate(156.623,-41.1226)">
					<title>Sheet.3</title>
					<path d="M71.52 203.17 C73.66 201.02 73.31 197.09 71.52 194.94 L60.43 183.86 L11.09 135.94 C8.94 133.79 5.72
								 133.79 3.22 135.94 C1.07 138.09 0.36 142.02 3.22 144.16 L55.07 194.94 C57.21 197.09 57.21 201.02
								 55.07 203.17 L2.15 255.73 C0 257.88 0 261.81 2.15 263.96 C4.29 266.1 8.22 265.74 10.01 263.96 L59
								 215.32 C59 215.32 59 215.32 59.36 214.97 L71.52 203.17 Z" class="st1"/>
				</g>
				<g id="shape4-5" transform="translate(0,-41.1226)">
					<title>Sheet.4</title>
					<path d="M2.15 203.17 C0 201.02 0.36 197.09 2.15 194.94 L13.23 183.86 L62.58 135.94 C64.72 133.79 67.94 133.79
								 70.44 135.94 C72.59 138.09 73.31 142.02 70.44 144.16 L19.67 194.94 C17.52 197.09 17.52 201.02 19.67
								 203.17 L71.52 255.73 C73.66 257.88 73.66 261.81 71.52 263.96 C69.37 266.1 65.44 265.74 63.65 263.96
								 L13.59 216.04 C13.59 216.04 13.59 216.04 13.23 215.68 L2.15 203.17 Z" class="st1"/>
				</g>
				<g id="shape5-7" transform="translate(63.6506,0)">
					<title>Sheet.5</title>
					<path d="M107.28 55.12 L37.55 55.12 L0 160.97 L45.77 161.33 L10.01 266.1 L108.71 126.28 L60.79 126.28 L107.28
								 55.12 Z" class="st2"/>
				</g>
				<g id="shape6-9" transform="translate(73.663,0)">
					<title>Sheet.6</title>
					<path d="M50.78 126.28 L97.26 55.12 L60.79 55.12 L22.17 143.09 L67.94 143.45 L0 266.1 L98.69 126.28 L50.78 126.28
								 Z" class="st3"/>
				</g>
			</g>
		</g>
		<g id="shape20-11" transform="translate(77.9528,-80.2178)">
			<title>Sheet.20</title>
			<path d="M0 200.91 L18.19 200.91 L34.44 200.04 L46.78 155.72 C47.43 153.11 48.73 147.89 53.93 147.89 C59.13 147.89 59.78
						 153.11 59.78 155.72 L60.43 229.6 L69.52 204.39 C70.17 201.78 72.12 200.91 73.42 200.91 L126.05 200.91 C128.65
						 200.91 130.6 204.39 130.6 207 C130.6 209.61 128.65 214.82 126.05 214.82 L78.62 214.82 L61.73 260.02 C60.43
						 264.36 59.13 266.1 55.23 265.23 C53.28 264.36 51.33 260.89 51.33 258.28 L50.68 190.48 L45.48 208.74 C44.83
						 211.34 43.53 214.82 41.58 214.82 L25.99 214.82 L5.85 214.82 L2.6 207.87 L0 200.91 Z" class="st4"/>
		</g>
	</g>
</svg>
